<svg width="102" height="32" viewBox="0 0 102 32" fill="none" xmlns="http://www.w3.org/2000/svg">
<path d="M99.623 2.64608C99.7858 2.56465 99.908 2.48323 100.03 2.36109C100.112 2.23895 100.152 2.0761 100.152 1.87254C100.152 1.58755 100.071 1.34328 99.908 1.22114C99.7451 1.099 99.4601 1.01758 99.0937 1.01758H98.2388V3.98959H98.7273V2.80893H99.1752L99.8673 3.98959H100.437L99.623 2.64608ZM99.0937 2.4018H98.7273V1.4247H99.0937C99.2973 1.4247 99.4601 1.46542 99.5416 1.54684C99.623 1.62827 99.7044 1.7504 99.7044 1.91325C99.7044 2.03539 99.6637 2.15753 99.5416 2.27966C99.3787 2.36109 99.2566 2.4018 99.0937 2.4018Z" fill="#4DCEFD"/>
<path d="M101.292 1.2619C101.089 0.854777 100.763 0.569789 100.356 0.366227C99.9488 0.162665 99.5417 0.0405273 99.0938 0.0405273C98.646 0.0405273 98.2389 0.162665 97.8317 0.366227C97.4246 0.569789 97.1396 0.895489 96.9361 1.30261C96.7325 1.70974 96.6104 2.11686 96.6104 2.5647C96.6104 3.01254 96.7325 3.41966 96.9361 3.78607C97.1396 4.15249 97.4653 4.47819 97.8317 4.72246C98.2389 4.96674 98.646 5.04816 99.0938 5.04816C99.5417 5.04816 99.9895 4.92602 100.356 4.72246C100.763 4.47819 101.048 4.1932 101.252 3.78607C101.455 3.41966 101.577 3.01254 101.577 2.5647C101.659 2.03544 101.537 1.62831 101.292 1.2619ZM101.007 3.58251C100.804 3.90821 100.559 4.15249 100.234 4.35605C99.9081 4.55961 99.5417 4.64104 99.1752 4.64104C98.8088 4.64104 98.4424 4.55961 98.1167 4.35605C97.791 4.15249 97.506 3.90821 97.3432 3.58251C97.1396 3.25681 97.0582 2.8904 97.0582 2.52399C97.0582 2.11686 97.1396 1.79116 97.3432 1.46546C97.5467 1.13976 97.791 0.895489 98.1167 0.691927C98.4424 0.488364 98.8088 0.40694 99.1752 0.40694C99.5824 0.40694 99.9081 0.488364 100.234 0.691927C100.559 0.895489 100.804 1.13976 101.007 1.46546C101.211 1.79116 101.292 2.15758 101.292 2.52399C101.292 2.8904 101.211 3.25681 101.007 3.58251Z" fill="#4DCEFD"/>
<path d="M15.0229 29.9643C13.5165 31.1856 11.4809 31.7963 8.91603 31.7963C6.31043 31.7963 4.19338 31.1449 2.6056 29.8421C0.854962 28.4579 0 26.5037 0 23.9795V23.1653H6.26972C6.26972 24.0609 6.47328 24.8345 6.88041 25.4452C7.32824 26.178 7.97964 26.5037 8.83461 26.5037C10.4224 26.5037 11.2366 25.7302 11.2366 24.1424C11.2366 23.4095 10.9517 22.8396 10.4224 22.3917C10.2188 22.2289 9.93384 22.0253 9.56743 21.8625L9.07888 21.6182L6.39186 20.4783C5.49618 20.1118 4.72265 19.7454 4.11196 19.3383C3.33842 18.8905 2.72774 18.4019 2.19847 17.8727C0.977099 16.6513 0.407125 15.1449 0.407125 13.3943C0.407125 11.2365 1.3028 9.44517 3.13486 8.06095C4.80407 6.79886 6.75827 6.14746 9.03817 6.14746C10.3003 6.14746 11.5216 6.39174 12.6616 6.83957C13.9237 7.32812 14.9415 8.06095 15.6743 8.95662C16.6921 10.2187 17.2214 11.8472 17.3028 13.8014H11.0738C10.8295 12.2136 10.0967 11.3994 8.79389 11.3994C7.36896 11.3994 6.63613 12.0508 6.63613 13.3129C6.63613 13.7607 6.71756 14.1271 6.88041 14.3714C7.12468 14.7785 7.89822 15.3078 9.16031 15.9185L11.7659 17.0991C12.6616 17.5062 13.4351 17.9134 14.0458 18.2798C14.7786 18.7276 15.3893 19.2162 15.8779 19.7454C16.9771 20.9261 17.5471 22.3917 17.5471 24.1831C17.4656 26.7073 16.6514 28.6207 15.0229 29.9643Z" fill="#4DCEFD"/>
<path d="M34.1577 30.1677C32.6513 31.3891 30.6157 31.9998 28.0508 31.9998C25.4452 31.9998 23.3282 31.3484 21.7404 30.0456C20.0304 28.6614 19.1348 26.7072 19.1348 24.183V23.3688H25.4045C25.4045 24.2644 25.608 25.038 26.0152 25.6487C26.463 26.3815 27.1144 26.7072 27.9694 26.7072C29.5572 26.7072 30.3714 25.9336 30.3714 24.3459C30.3714 23.613 30.0864 23.0431 29.5572 22.5952C29.3536 22.4324 29.0686 22.2288 28.7022 22.066L28.2136 21.8217L25.5266 20.7632C24.6309 20.3968 23.8574 20.0303 23.2467 19.6232C22.4732 19.1754 21.8625 18.6868 21.3332 18.1576C20.1119 16.9362 19.5419 15.4298 19.5419 13.6792C19.5419 11.5214 20.4376 9.73008 22.2696 8.34586C23.9388 7.08377 25.893 6.43237 28.1729 6.43237C29.435 6.43237 30.6564 6.67665 31.7963 7.12449C33.0584 7.61303 34.0762 8.34586 34.8091 9.24153C35.8269 10.5036 36.3561 12.1321 36.4376 14.0863H30.2086C29.9643 12.4985 29.2315 11.6843 27.9287 11.6843C26.5037 11.6843 25.7709 12.3357 25.7709 13.5978C25.7709 14.0456 25.8523 14.412 26.0152 14.6563C26.2594 15.0634 27.033 15.5927 28.2951 16.2034L30.9007 17.384C31.7963 17.7912 32.5699 18.1983 33.1806 18.5647C33.9134 19.0125 34.5241 19.5011 35.0126 20.0303C36.1119 21.211 36.6818 22.6766 36.6818 24.468C36.6411 26.9107 35.7862 28.8242 34.1577 30.1677Z" fill="#4DCEFD"/>
<path d="M86.554 18.5647C86.0655 19.8675 85.3734 20.8853 84.5184 21.6181C83.5006 22.5138 82.3199 23.1245 81.0171 23.4502C79.9993 23.6945 78.6965 23.8573 77.0273 23.8573H74.1774V31.8777H67.9077V6.26953H76.2945C77.1087 6.26953 77.8008 6.26953 78.3301 6.31024C79.1036 6.35096 79.7958 6.43238 80.4064 6.55452C81.9535 6.83951 83.2156 7.36877 84.152 8.14231C86.1469 9.85223 87.1647 12.0914 87.1647 14.9006C87.2054 16.1627 87.0019 17.384 86.554 18.5647ZM79.5922 12.5393C78.9408 12.2136 77.9637 12.0507 76.6202 12.0507H74.2181V18.1576H76.8645C78.1265 18.1576 79.0629 17.954 79.7143 17.5876C80.5286 17.099 80.9357 16.2848 80.9357 15.1041C80.9357 13.8421 80.4879 12.9871 79.5922 12.5393Z" fill="#4DCEFD"/>
<path d="M89.0786 31.7554V6.18799H95.6333V31.7554H89.0786Z" fill="#4DCEFD"/>
<path d="M46.6159 22.5138L40.1426 16.7326L40.1833 9.44507L46.6973 14.7377L46.6159 22.5138Z" fill="#4DCEFD"/>
<path d="M46.6566 31.7963H40.1833L40.1426 16.7327L46.6159 22.5138L46.6566 31.7963Z" fill="#4DCEFD"/>
<path d="M64.2442 31.7962L56.061 31.8369L46.6157 22.5137L51.1348 18.5239L64.2442 31.7962Z" fill="#4DCEFD"/>
<path d="M69.3741 2.52393H61.0281L42.1782 18.5239L46.6159 22.5137L69.3741 2.52393Z" fill="#4DCEFD"/>
</svg>
